<svg width="16" height="16" viewBox="0 0 16 16" fill="none" xmlns="http://www.w3.org/2000/svg">
<path d="M14.559 0.205109H1.10256C0.879507 0.205109 0.665589 0.293716 0.507866 0.451439C0.350143 0.609162 0.261536 0.82308 0.261536 1.04613V14.5025C0.261536 14.7256 0.350143 14.9395 0.507866 15.0972C0.665589 15.255 0.879507 15.3436 1.10256 15.3436H14.559C14.782 15.3436 14.9959 15.255 15.1537 15.0972C15.3114 14.9395 15.4 14.7256 15.4 14.5025V1.04613C15.4 0.82308 15.3114 0.609162 15.1537 0.451439C14.9959 0.293716 14.782 0.205109 14.559 0.205109ZM4.75177 13.1039H2.50455V5.87951H4.75177V13.1039ZM3.62816 4.89298C3.28287 4.89298 2.95173 4.75582 2.70757 4.51166C2.46342 4.26751 2.32625 3.93636 2.32625 3.59108C2.32625 3.24579 2.46342 2.91464 2.70757 2.67049C2.95173 2.42633 3.28287 2.28917 3.62816 2.28917C3.97345 2.28917 4.30459 2.42633 4.54875 2.67049C4.7929 2.91464 4.93007 3.24579 4.93007 3.59108C4.93007 3.93636 4.7929 4.26751 4.54875 4.51166C4.30459 4.75582 3.97345 4.89298 3.62816 4.89298ZM13.1612 13.1039H10.9165V9.59095C10.9165 8.75329 10.9014 7.67594 9.74915 7.67594C8.58012 7.67594 8.40266 8.58929 8.40266 9.53208V13.1048H6.15965V5.88035H8.31267V6.86771H8.34379C8.64235 6.30002 9.37573 5.70121 10.4665 5.70121C12.7407 5.70121 13.1603 7.19655 13.1603 9.14269V13.1039H13.1612Z" fill="#C6CBCD"/>
</svg>
