<svg width="17" height="14" viewBox="0 0 17 14" fill="none" xmlns="http://www.w3.org/2000/svg">
<path d="M15.2452 3.39174C15.2561 3.53892 15.2561 3.68526 15.2561 3.8316C15.2561 8.31006 11.8474 13.4706 5.61793 13.4706C3.69871 13.4706 1.91573 12.9147 0.415344 11.9492C0.687837 11.9803 0.950237 11.9912 1.23366 11.9912C2.75844 11.9949 4.24003 11.485 5.43963 10.5438C4.73268 10.531 4.04738 10.2978 3.4794 9.87667C2.91142 9.45555 2.48913 8.86757 2.27149 8.19484C2.4809 8.22596 2.69116 8.24698 2.91151 8.24698C3.21512 8.24698 3.52041 8.20493 3.80384 8.13176C3.03662 7.97686 2.34674 7.561 1.8515 6.9549C1.35625 6.34881 1.08622 5.58989 1.08732 4.80719V4.76514C1.53895 5.0166 2.06291 5.17387 2.61799 5.1949C2.15298 4.8859 1.77168 4.46659 1.50812 3.9744C1.24456 3.4822 1.10693 2.93242 1.10751 2.3741C1.10751 1.74501 1.27487 1.16807 1.56839 0.665138C2.41963 1.71223 3.48131 2.56885 4.68467 3.17952C5.88804 3.79018 7.20626 4.14128 8.55395 4.21006C8.50181 3.95775 8.46985 3.69619 8.46985 3.43379C8.46963 2.98886 8.5571 2.54824 8.72727 2.13713C8.89743 1.72603 9.14696 1.35249 9.46157 1.03787C9.77619 0.723253 10.1497 0.473729 10.5608 0.303562C10.9719 0.133395 11.4126 0.0459219 11.8575 0.046143C12.8331 0.046143 13.7136 0.454881 14.3326 1.11593C15.0911 0.969267 15.8183 0.692405 16.4823 0.297609C16.2295 1.08045 15.6999 1.74426 14.9928 2.16469C15.6655 2.08797 16.3229 1.91108 16.9432 1.63989C16.4799 2.31531 15.9058 2.9076 15.2452 3.39174Z" fill="#C6CBCD"/>
</svg>
